<svg width="14" height="24" viewBox="0 0 14 24" fill="none" xmlns="http://www.w3.org/2000/svg">
<path d="M9.33333 4.8H12.8333C13.1428 4.8 13.4395 4.67357 13.6583 4.44853C13.8771 4.22348 14 3.91826 14 3.6V1.2C14 0.88174 13.8771 0.576515 13.6583 0.351472C13.4395 0.126428 13.1428 0 12.8333 0H9.33333C7.78624 0 6.30251 0.632141 5.20854 1.75736C4.11458 2.88258 3.5 4.4087 3.5 6V9.6H1.16667C0.857247 9.6 0.560501 9.72643 0.341709 9.95147C0.122917 10.1765 0 10.4817 0 10.8V13.2C0 13.5183 0.122917 13.8235 0.341709 14.0485C0.560501 14.2736 0.857247 14.4 1.16667 14.4H3.5V22.8C3.5 23.1183 3.62292 23.4235 3.84171 23.6485C4.0605 23.8736 4.35725 24 4.66667 24H7C7.30942 24 7.60617 23.8736 7.82496 23.6485C8.04375 23.4235 8.16667 23.1183 8.16667 22.8V14.4H10.7567C11.0232 14.408 11.2843 14.3218 11.4966 14.1559C11.7088 13.99 11.8595 13.7543 11.9233 13.488L12.5067 11.088C12.5499 10.9083 12.5522 10.7208 12.5133 10.54C12.4744 10.3593 12.3953 10.1903 12.2824 10.0462C12.1694 9.90209 12.0255 9.78683 11.8621 9.70942C11.6986 9.63202 11.5199 9.59457 11.34 9.6H8.16667V6C8.16667 5.68174 8.28958 5.37652 8.50838 5.15147C8.72717 4.92643 9.02391 4.8 9.33333 4.8Z" fill="white"/>
</svg>
