<svg width="27" height="18" viewBox="0 0 27 18" fill="none" xmlns="http://www.w3.org/2000/svg">
<path d="M13.5861 0H13.7363C15.1234 0.0048047 22.1518 0.052852 24.0469 0.536525C24.6198 0.684139 25.1418 0.971866 25.5608 1.37095C25.9799 1.77004 26.2812 2.26651 26.4347 2.81075C26.6051 3.41934 26.7249 4.22493 26.8059 5.05614L26.8228 5.22271L26.8599 5.63911L26.8734 5.80568C26.9831 7.26951 26.9966 8.64045 26.9983 8.93994V9.06006C26.9966 9.37076 26.9814 10.8346 26.8599 12.3593L26.8464 12.5274L26.8312 12.694C26.7469 13.6101 26.622 14.5198 26.4347 15.1893C26.2816 15.7337 25.9805 16.2304 25.5614 16.6296C25.1423 17.0287 24.62 17.3163 24.0469 17.4635C22.0894 17.9632 14.6492 17.9984 13.6181 18H13.3785C12.8571 18 10.7004 17.9904 8.43919 17.9167L8.15231 17.9071L8.0055 17.9007L7.71694 17.8895L7.42837 17.8783C5.55525 17.7998 3.77156 17.6733 2.94975 17.4619C2.37683 17.3148 1.85467 17.0275 1.4356 16.6286C1.01652 16.2298 0.715242 15.7334 0.561938 15.1893C0.374625 14.5214 0.24975 13.6101 0.165375 12.694L0.151875 12.5258L0.138375 12.3593C0.0550928 11.2741 0.00894352 10.1866 0 9.0985L0 8.9015C0.003375 8.55717 0.016875 7.3672 0.108 6.05392L0.119813 5.88896L0.124875 5.80568L0.138375 5.63911L0.1755 5.22271L0.192375 5.05614C0.273375 4.22493 0.393187 3.41774 0.563625 2.81075C0.716671 2.26629 1.01784 1.76959 1.43693 1.37043C1.85602 0.971276 2.37831 0.683696 2.95144 0.536525C3.77325 0.328321 5.55694 0.200196 7.43006 0.120117L7.71694 0.108906L8.00719 0.0992973L8.15231 0.0944926L8.44087 0.0832817C10.0469 0.034233 11.6535 0.00700343 13.2604 0.00160164H13.5861V0ZM10.8 5.14103V12.8574L17.8149 9.0008L10.8 5.14103Z" fill="#FFF8F8"/>
</svg>
