<svg width="37" height="31" viewBox="0 0 37 31" fill="none" xmlns="http://www.w3.org/2000/svg">
<path d="M7.60143 16.5052L19.1865 4.77602C19.9692 3.987 21.0282 3.54408 22.1322 3.54408C23.2361 3.54408 24.2951 3.987 25.0778 4.77602L25.9781 5.68852L27.7829 3.85935L26.8825 2.94268C25.6201 1.66591 23.9095 0.948853 22.126 0.948853C20.3425 0.948853 18.6319 1.66591 17.3694 2.94268L5.79254 14.676L7.60143 16.5052Z" fill="white"/>
<path d="M23.0674 8.63854L21.2627 6.80937L9.67344 18.5552C8.89058 19.3481 7.82901 19.7933 6.72227 19.7929C5.61552 19.7925 4.55426 19.3466 3.77194 18.5531C2.98963 17.7597 2.55034 16.6838 2.55073 15.5621C2.55111 14.4404 2.99114 13.3648 3.774 12.5719L13.7722 2.43854L11.9674 0.609375L1.96922 10.7427C1.33273 11.3728 0.825927 12.1247 0.478169 12.9548C0.130412 13.7848 -0.0513896 14.6765 -0.0567038 15.5783C-0.0620179 16.4801 0.109261 17.3739 0.447211 18.2081C0.785161 19.0423 1.28307 19.8003 1.91208 20.4381C2.5411 21.0759 3.28873 21.5808 4.11166 21.9237C4.93459 22.2666 5.81647 22.4406 6.70622 22.4356C7.59596 22.4306 8.47588 22.2467 9.29502 21.8946C10.1142 21.5425 10.8562 21.0292 11.4782 20.3844L23.0674 8.63854ZM34.6032 10.7427C33.3402 9.46695 31.6298 8.75059 29.8467 8.75059C28.0635 8.75059 26.3531 9.46695 25.0901 10.7427L13.5009 22.4885L15.3057 24.3177L26.8949 12.5719C27.4787 11.9814 28.2221 11.5794 29.0311 11.4169C29.8402 11.2543 30.6786 11.3384 31.4405 11.6585C32.2024 11.9787 32.8537 12.5205 33.3119 13.2155C33.7702 13.9105 34.015 14.7276 34.0153 15.5635C34.0174 16.1204 33.9094 16.6721 33.6976 17.1859C33.4857 17.6998 33.1744 18.1654 32.782 18.5552L22.7961 28.6885L24.605 30.5177L34.6032 20.3844C35.863 19.1049 36.5705 17.3711 36.5705 15.5635C36.5705 13.756 35.863 12.0222 34.6032 10.7427Z" fill="white"/>
<path d="M28.971 14.6219L17.3818 26.3636C16.5981 27.1554 15.5366 27.6 14.43 27.6C13.3234 27.6 12.262 27.1554 11.4782 26.3636L10.5779 25.4469L8.77313 27.2761L9.67347 28.1927C10.9364 29.4685 12.6469 30.1848 14.43 30.1848C16.2132 30.1848 17.9236 29.4685 19.1866 28.1927L30.7758 16.4427L28.971 14.6219Z" fill="white"/>
</svg>
