<svg width="300" height="44" viewBox="0 0 300 44" fill="none" xmlns="http://www.w3.org/2000/svg">
<g clip-path="url(#clip0_13620_30)">
<path d="M11.094 23.2568L28.002 6.16084C29.1443 5.0108 30.6899 4.36523 32.301 4.36523C33.9121 4.36523 35.4577 5.0108 36.6 6.16084L37.914 7.49087L40.548 4.82475L39.234 3.48865C37.3915 1.62767 34.8949 0.58252 32.292 0.58252C29.6891 0.58252 27.1925 1.62767 25.35 3.48865L8.45398 20.5907L11.094 23.2568Z" fill="black"/>
<path d="M33.666 11.7909L31.032 9.12477L14.118 26.245C12.9754 27.4007 11.4261 28.0497 9.81086 28.0491C8.19561 28.0485 6.64674 27.3985 5.50498 26.242C4.36322 25.0855 3.72211 23.5173 3.72267 21.8824C3.72323 20.2474 4.36543 18.6796 5.50798 17.524L20.1 2.75401L17.466 0.0878906L2.87398 14.8578C1.94505 15.7763 1.20539 16.8722 0.697854 18.082C0.190316 19.2919 -0.0750159 20.5916 -0.0827717 21.906C-0.0905275 23.2204 0.159447 24.5233 0.652671 25.7392C1.1459 26.9551 1.87257 28.0598 2.79059 28.9895C3.70862 29.9191 4.79975 30.6551 6.00079 31.1549C7.20182 31.6546 8.48889 31.9082 9.78744 31.9009C11.086 31.8936 12.3702 31.6256 13.5657 31.1124C14.7612 30.5992 15.8442 29.851 16.752 28.9112L33.666 11.7909ZM50.502 14.8578C48.6587 12.9983 46.1624 11.9542 43.56 11.9542C40.9576 11.9542 38.4613 12.9983 36.618 14.8578L19.704 31.9781L22.338 34.6442L39.252 17.524C40.104 16.6633 41.1889 16.0774 42.3697 15.8405C43.5505 15.6036 44.7741 15.7261 45.8861 16.1927C46.9981 16.6593 47.9486 17.449 48.6174 18.4621C49.2862 19.4751 49.6435 20.6661 49.644 21.8845C49.6471 22.6962 49.4894 23.5003 49.1802 24.2493C48.871 24.9982 48.4167 25.6768 47.844 26.245L33.27 41.015L35.91 43.6811L50.502 28.9112C52.3405 27.0462 53.3731 24.5191 53.3731 21.8845C53.3731 19.2499 52.3405 16.7228 50.502 14.8578Z" fill="black"/>
<path d="M42.282 20.5117L25.368 37.6259C24.2242 38.78 22.6751 39.4281 21.06 39.4281C19.445 39.4281 17.8958 38.78 16.752 37.6259L15.438 36.2898L12.804 38.9559L14.118 40.292C15.9613 42.1515 18.4576 43.1957 21.06 43.1957C23.6624 43.1957 26.1587 42.1515 28.002 40.292L44.916 23.1657L42.282 20.5117Z" fill="black"/>
<path d="M68.82 26.4877C68.993 27.5031 69.5397 28.4145 70.35 29.0384C71.2795 29.6892 72.3951 30.0116 73.524 29.9554C74.5985 30.0248 75.6622 29.7039 76.524 29.0505C76.8674 28.7613 77.1411 28.3965 77.3241 27.9839C77.5072 27.5713 77.5947 27.1219 77.58 26.6699C77.592 26.247 77.4948 25.8283 77.298 25.4552C77.1007 25.1166 76.8299 24.8279 76.506 24.6111C76.1196 24.3514 75.6996 24.147 75.258 24.0037L73.59 23.4936L72 23.0563C71.1185 22.8199 70.2608 22.5007 69.438 22.1028C68.7316 21.7647 68.0785 21.3227 67.5 20.791C66.984 20.3061 66.575 19.7162 66.3 19.0602C66.0065 18.3384 65.8635 17.5631 65.88 16.7827C65.8715 15.9182 66.0561 15.0628 66.42 14.2806C66.7708 13.5193 67.2902 12.8502 67.938 12.325C68.6505 11.7478 69.465 11.3129 70.338 11.0436C71.3581 10.7164 72.4239 10.5585 73.494 10.576C75.698 10.576 77.444 11.1023 78.732 12.155C79.3703 12.6753 79.8997 13.3193 80.2892 14.0493C80.6786 14.7793 80.9202 15.5805 81 16.4062L77.4 16.7038C77.2218 15.8677 76.7588 15.1217 76.092 14.5964C75.2836 14.0494 74.3206 13.7849 73.35 13.8433C72.434 13.7888 71.528 14.0594 70.788 14.6085C70.4924 14.8417 70.2549 15.1416 70.0944 15.4844C69.934 15.8271 69.8551 16.2032 69.864 16.5823C69.8492 16.9865 69.9425 17.3873 70.134 17.7423C70.327 18.07 70.5918 18.3484 70.908 18.5561C71.2934 18.8099 71.7086 19.0139 72.144 19.1634C72.63 19.3456 73.182 19.54 73.794 19.7404L75.318 20.2202C76.266 20.5238 77.124 20.8396 77.892 21.1676C78.5982 21.4716 79.2555 21.881 79.842 22.3822C80.3705 22.8351 80.7927 23.4015 81.078 24.0402C81.3866 24.7939 81.5339 25.6053 81.51 26.4209C81.5199 27.3742 81.3147 28.3172 80.91 29.1781C80.5195 30.0049 79.9493 30.7316 79.242 31.3037C78.4819 31.912 77.6174 32.3732 76.692 32.6641C75.6376 32.996 74.5381 33.1579 73.434 33.1439C71.4812 33.2175 69.5549 32.6695 67.926 31.577C67.1656 31.02 66.5288 30.308 66.0565 29.487C65.5843 28.6659 65.2871 27.7539 65.184 26.8095L68.82 26.4877ZM96.69 10.6367C98.1992 10.6169 99.6976 10.8975 101.1 11.4626C102.381 11.9819 103.537 12.773 104.49 13.7826C105.446 14.8121 106.187 16.0268 106.668 17.3536C107.196 18.8121 107.458 20.3553 107.442 21.9085C107.464 23.4901 107.184 25.0612 106.62 26.5362C106.094 27.8769 105.299 29.0927 104.286 30.1073L107.142 33.49V34.5407H103.542L101.544 32.0689C100.82 32.4195 100.062 32.6922 99.282 32.8827C98.44 33.0649 97.581 33.1545 96.72 33.1499C95.1934 33.1592 93.6802 32.862 92.268 32.2754C90.9944 31.7528 89.8465 30.9596 88.902 29.9494C87.9571 28.9246 87.2283 27.7157 86.76 26.3966C86.2425 24.9525 85.9845 23.4263 85.998 21.8903C85.983 20.3442 86.241 18.8078 86.76 17.3536C87.2312 16.0299 87.9664 14.8185 88.92 13.7947C89.8708 12.7849 91.022 11.9901 92.298 11.4626C93.6921 10.8908 95.1859 10.6099 96.69 10.6367ZM96.66 13.8919C95.6693 13.8764 94.6877 14.0839 93.786 14.4992C92.9574 14.8866 92.2254 15.4574 91.644 16.1693C91.0392 16.9159 90.5829 17.7738 90.3 18.6958C89.987 19.7223 89.8331 20.7917 89.844 21.866C89.8335 22.9495 89.9935 24.0278 90.318 25.0605C90.6086 25.9908 91.0685 26.858 91.674 27.6173C92.2545 28.3379 92.9862 28.9188 93.816 29.3178C94.7168 29.736 95.6991 29.9436 96.69 29.9251C97.68 29.9348 98.6604 29.7276 99.564 29.3178C100.391 28.9386 101.123 28.3762 101.706 27.6719C102.318 26.9242 102.779 26.0616 103.062 25.1333C103.39 24.0764 103.552 22.9738 103.542 21.866C103.551 20.7741 103.389 19.6877 103.062 18.6472C102.775 17.7244 102.315 16.8665 101.706 16.1208C101.117 15.4165 100.381 14.8524 99.552 14.4689C98.6411 14.0651 97.654 13.8682 96.66 13.8919ZM121.584 30.0769C122.251 30.1185 122.919 30.0117 123.541 29.7641C124.163 29.5165 124.724 29.134 125.184 28.6436C126.036 27.6922 126.462 26.2306 126.462 24.2588V11.0557H130.2V24.3803C130.229 25.7453 130.027 27.1054 129.6 28.4007C129.255 29.4383 128.674 30.3788 127.902 31.1458C127.137 31.8793 126.209 32.4166 125.196 32.7127C122.84 33.3721 120.352 33.3721 117.996 32.7127C116.987 32.4163 116.063 31.879 115.302 31.1458C114.532 30.3772 113.951 29.4372 113.604 28.4007C113.178 27.1053 112.975 25.7453 113.004 24.3803V11.0557H116.754V24.2588C116.754 26.2265 117.182 27.6881 118.038 28.6436C118.492 29.1274 119.044 29.5061 119.656 29.7535C120.268 30.0009 120.926 30.1112 121.584 30.0769ZM133.944 31.6681L141.534 11.08H147.162L154.668 31.6681V32.7005H150.978L148.83 26.518H139.572L137.4 32.7005H133.92L133.944 31.6681ZM140.7 23.2871H147.762L146.598 19.8497C146.142 18.5075 145.776 17.4204 145.494 16.5641C145.212 15.7078 144.972 14.979 144.75 14.3352H143.832L143.472 15.3616C143.352 15.7017 143.22 16.0843 143.07 16.5034C142.92 16.9224 142.758 17.4083 142.578 17.9549C142.398 18.5014 142.182 19.127 141.924 19.8497L140.7 23.2871ZM175.632 32.7005H172.032L165.51 24.1981H163.11V32.7005H159.414V11.0557H166.356C167.396 11.0539 168.435 11.129 169.464 11.2804C170.42 11.4208 171.333 11.7779 172.134 12.325C173.822 13.4506 174.666 15.147 174.666 17.4143C174.683 18.293 174.534 19.1669 174.228 19.9894C173.969 20.6818 173.579 21.317 173.082 21.8599C172.607 22.3702 172.049 22.7934 171.432 23.111C170.813 23.4311 170.159 23.6738 169.482 23.8337L175.632 31.6681V32.7005ZM163.098 20.9429H166.344C167.521 21.0063 168.692 20.7326 169.722 20.1533C170.137 19.8726 170.47 19.4848 170.688 19.0299C170.905 18.5751 170.998 18.0698 170.958 17.5662C171.007 17.0664 170.915 16.5627 170.693 16.1135C170.471 15.6642 170.128 15.2877 169.704 15.0276C168.662 14.5034 167.506 14.2568 166.344 14.311H163.098V20.9429ZM180.396 11.0557H194.244V14.3717H184.044V20.038H193.512V23.2932H184.062V29.3663H194.454V32.7005H180.396V11.0557ZM202.734 26.4877C202.907 27.5031 203.454 28.4145 204.264 29.0384C205.194 29.6884 206.309 30.0107 207.438 29.9554C208.512 30.0248 209.576 29.7039 210.438 29.0505C210.781 28.7613 211.055 28.3965 211.238 27.9839C211.421 27.5713 211.509 27.1219 211.494 26.6699C211.506 26.247 211.409 25.8283 211.212 25.4552C211.015 25.1166 210.744 24.8279 210.42 24.6111C210.034 24.3514 209.614 24.147 209.172 24.0037L207.504 23.4936L205.896 23.0442C205.014 22.8078 204.157 22.4886 203.334 22.0907C202.628 21.7526 201.974 21.3105 201.396 20.7789C200.88 20.2939 200.471 19.7041 200.196 19.048C199.899 18.2836 199.757 17.4669 199.778 16.6459C199.799 15.825 199.981 15.0166 200.316 14.2684C200.669 13.5084 201.188 12.8397 201.834 12.3129C202.546 11.7356 203.361 11.3008 204.234 11.0314C205.254 10.7042 206.32 10.5463 207.39 10.5638C209.594 10.5638 211.342 11.0902 212.634 12.1428C213.271 12.6635 213.8 13.3077 214.188 14.0376C214.577 14.7676 214.817 15.5688 214.896 16.3941L211.296 16.6916C211.121 15.8573 210.662 15.1115 210 14.5842C209.192 14.0364 208.229 13.7719 207.258 13.8312C206.342 13.7767 205.436 14.0473 204.696 14.5964C204.401 14.8302 204.165 15.1304 204.006 15.4731C203.846 15.8158 203.768 16.1915 203.778 16.5702C203.761 16.9738 203.853 17.3745 204.042 17.7302C204.235 18.0579 204.5 18.3363 204.816 18.544C205.201 18.7977 205.617 19.0017 206.052 19.1513C206.538 19.3335 207.09 19.5278 207.708 19.7282L209.226 20.208C210.178 20.5117 211.036 20.8275 211.8 21.1554C212.506 21.4595 213.163 21.8689 213.75 22.3701C214.278 22.8229 214.701 23.3893 214.986 24.028C215.295 24.7817 215.442 25.5932 215.418 26.4087C215.428 27.362 215.223 28.3051 214.818 29.1659C214.429 29.994 213.859 30.7211 213.15 31.2915C212.389 31.895 211.524 32.352 210.6 32.6398C209.543 32.9717 208.442 33.1336 207.336 33.1196C205.383 33.1924 203.457 32.6445 201.828 31.5527C201.073 30.9972 200.44 30.2886 199.97 29.472C199.5 28.6554 199.203 27.7486 199.098 26.8095L202.734 26.4877ZM220.746 11.0557H228.546C229.782 11.0234 231.014 11.1979 232.194 11.572C233.09 11.8516 233.911 12.3357 234.594 12.987C235.194 13.5777 235.643 14.3072 235.902 15.1126C236.177 15.9632 236.313 16.8535 236.304 17.7484C236.329 18.7568 236.14 19.7589 235.752 20.6878C235.401 21.5001 234.854 22.2101 234.162 22.7527C233.404 23.3205 232.544 23.7331 231.63 23.9673C230.531 24.2528 229.399 24.3896 228.264 24.3742H224.484V32.7005H220.758L220.746 11.0557ZM224.472 21.1251H228.042C228.646 21.1296 229.249 21.0747 229.842 20.9611C230.347 20.8654 230.831 20.6782 231.27 20.4084C231.674 20.1525 232.004 19.7918 232.224 19.3638C232.466 18.8613 232.583 18.3069 232.566 17.7484C232.584 17.1761 232.467 16.6077 232.224 16.0904C232.01 15.6569 231.685 15.2897 231.282 15.0276C230.85 14.7559 230.372 14.5685 229.872 14.4749C229.279 14.3604 228.676 14.3055 228.072 14.311H224.442L224.472 21.1251ZM237.336 31.6681L244.932 11.08H250.56L258.06 31.6681V32.7005H254.4L252.258 26.518H242.964L240.822 32.7005H237.336V31.6681ZM244.098 23.2871H251.154L249.99 19.8497C249.534 18.5075 249.168 17.4204 248.892 16.5641L248.148 14.3352H247.2L246.84 15.3616C246.72 15.7017 246.588 16.0843 246.438 16.5034C246.288 16.9224 246.126 17.4083 245.946 17.9549C245.766 18.5014 245.55 19.127 245.292 19.8497L244.098 23.2871ZM280.752 26.9735C280.413 27.8203 279.97 28.6203 279.432 29.3542C278.874 30.1066 278.204 30.7664 277.446 31.3098C276.624 31.8943 275.714 32.3413 274.752 32.6337C273.647 32.9688 272.498 33.1326 271.344 33.1196C269.854 33.1425 268.375 32.8551 267 32.2754C265.74 31.7434 264.606 30.9488 263.67 29.9433C262.73 28.9148 262.005 27.7042 261.54 26.3844C261.031 24.9489 260.777 23.4336 260.79 21.9085C260.776 20.3834 261.03 18.8679 261.54 17.4326C262.006 16.1069 262.735 14.8917 263.682 13.8615C264.623 12.8453 265.764 12.0387 267.03 11.493C268.41 10.9056 269.895 10.6141 271.392 10.6367C273.474 10.5618 275.528 11.1409 277.272 12.2947C278.822 13.3635 279.996 14.9033 280.626 16.6916L276.84 17.4447C276.369 16.3928 275.622 15.4918 274.68 14.8393C273.685 14.1871 272.517 13.8566 271.332 13.8919C270.36 13.8704 269.397 14.0783 268.518 14.4992C267.709 14.9011 266.997 15.4798 266.436 16.1936C265.846 16.954 265.406 17.822 265.14 18.7504C264.834 19.7721 264.682 20.8348 264.69 21.9024C264.681 22.977 264.837 24.0464 265.152 25.0726C265.434 25.9918 265.888 26.8475 266.49 27.593C267.077 28.2931 267.808 28.8548 268.632 29.2388C269.529 29.6553 270.507 29.8628 271.494 29.8461C272.72 29.896 273.929 29.5353 274.932 28.8198C275.816 28.1641 276.536 27.3069 277.032 26.3176L280.752 26.9735ZM285.786 11.0557H299.634V14.3717H289.434V20.038H298.92V23.2932H289.452V29.3663H299.844V32.7005H285.786V11.0557Z" fill="black"/>
</g>
<defs>
<clipPath id="clip0_13620_30">
<rect width="300" height="43.9024" fill="white"/>
</clipPath>
</defs>
</svg>
